<svg viewbox="0 0 420 175" width="420" height="175" xmlns="http://www.w3.org/2000/svg">
  <g fill="none" fill-rule="evenodd">
    <path d="M42.898 110.565l-7-2.692V21.898h4.666c22.616 0 34.282 12.743 34.282 43.436 0 29.616-8.256 44.693-31.948 45.23m-.897-97.461H1.256L0 18.846l11.487 4.128v85.796L0 112.898l1.256 5.744h43.257c30.155 0 56.36-16.154 56.36-54.386 0-37.872-25.847-51.153-58.872-51.153M149.333 112.18c-12.025 0-15.256-11.847-15.256-32.667s3.231-32.667 15.256-32.667c12.026 0 15.257 11.847 15.257 32.667s-3.23 32.667-15.257 32.667m0-73.591c-24.23 0-40.205 13.82-40.205 40.924 0 27.103 15.975 40.924 40.205 40.924 24.231 0 40.206-13.821 40.206-40.924s-15.975-40.924-40.206-40.924M197.975 113.616v5.025h39.128l2.333-5.205-10.59-3.41V61.563c3.232-3.05 8.078-6.102 14.18-6.102 6.642 0 12.744 3.95 12.744 15.616v39.128l-7.36 3.411v5.025h39.31l2.333-5.205-10.59-3.41V66.051c0-18.308-10.052-27.462-23.155-27.462-12.025 0-21 5.384-27.461 15.616h-.718l.539-15.616h-3.77l-27.103 8.795v1.974l7.539 11.847v49.18l-7.36 3.231zM313.207 29.077c8.077 0 14.538-6.283 14.538-14.359C327.745 6.461 321.284 0 313.207 0c-8.257 0-14.54 6.461-14.54 14.718 0 8.076 6.283 14.36 14.54 14.36M325.052 38.589h-3.948L294 47.384v1.975l7.54 11.846v49.18l-7.36 3.231v5.026h39.13l2.332-5.205-10.59-3.41zM379.795 112.18c-12.025 0-15.256-11.847-15.256-32.667s3.23-32.667 15.256-32.667c12.025 0 15.256 11.847 15.256 32.667s-3.231 32.667-15.256 32.667m0-73.591c-24.23 0-40.205 13.82-40.205 40.924 0 27.103 15.975 40.924 40.205 40.924 24.23 0 40.205-13.821 40.205-40.924s-15.975-40.924-40.205-40.924" fill="#000"/>
    <path d="M219.681 146.632c8.148 16.56 25.182 27.959 44.883 27.959 19.702 0 36.735-11.399 44.883-27.959-13.99 5.146-29.108 7.959-44.883 7.959-15.776 0-30.893-2.813-44.883-7.959" fill="#E66D45"/>
  </g>
</svg>
